<?xml version="1.0" encoding="utf-8"?>
<!-- Generator: Adobe Illustrator 27.5.0, SVG Export Plug-In . SVG Version: 6.00 Build 0)  -->
<svg version="1.1" xmlns="http://www.w3.org/2000/svg" xmlns:xlink="http://www.w3.org/1999/xlink" x="0px" y="0px"
	 viewBox="0 0 500 500" style="enable-background:new 0 0 500 500;" xml:space="preserve">
<g id="BACKGROUND">
	<rect style="fill:#90D6DD;" width="500" height="500"/>
	<g>
		<g style="opacity:0.4;">
			<g>
				<line style="opacity:0.4;fill:none;stroke:#FFFFFF;stroke-miterlimit:10;" x1="16.5" y1="54.665" x2="483.5" y2="54.665"/>
				<line style="opacity:0.05;fill:none;stroke:#070707;stroke-miterlimit:10;" x1="16.5" y1="53.665" x2="483.5" y2="53.665"/>
			</g>
		</g>
		<g style="opacity:0.4;">
			<g>
				<line style="opacity:0.4;fill:none;stroke:#FFFFFF;stroke-miterlimit:10;" x1="16.5" y1="148.582" x2="483.5" y2="148.582"/>
				<line style="opacity:0.05;fill:none;stroke:#070707;stroke-miterlimit:10;" x1="16.5" y1="147.582" x2="483.5" y2="147.582"/>
			</g>
		</g>
		<g style="opacity:0.4;">
			<g>
				<line style="opacity:0.4;fill:none;stroke:#FFFFFF;stroke-miterlimit:10;" x1="16.5" y1="242.5" x2="483.5" y2="242.5"/>
				<line style="opacity:0.05;fill:none;stroke:#070707;stroke-miterlimit:10;" x1="16.5" y1="241.5" x2="483.5" y2="241.5"/>
			</g>
		</g>
		<g style="opacity:0.4;">
			<g>
				<line style="opacity:0.4;fill:none;stroke:#FFFFFF;stroke-miterlimit:10;" x1="16.5" y1="336.418" x2="483.5" y2="336.418"/>
				<line style="opacity:0.05;fill:none;stroke:#070707;stroke-miterlimit:10;" x1="16.5" y1="335.418" x2="483.5" y2="335.418"/>
			</g>
		</g>
		<g style="opacity:0.4;">
			<g>
				<line style="opacity:0.4;fill:none;stroke:#FFFFFF;stroke-miterlimit:10;" x1="16.5" y1="430.335" x2="483.5" y2="430.335"/>
				<line style="opacity:0.05;fill:none;stroke:#070707;stroke-miterlimit:10;" x1="16.5" y1="429.335" x2="483.5" y2="429.335"/>
			</g>
		</g>
	</g>
</g>
<g id="OBJECTS">
	<g id="elements_7_">
		<path style="opacity:0.1;fill:#254244;" d="M236.374,172.647c4.749-20.679,1.201-41.906-9.991-59.772l-24.534-39.163
			c-1.068-1.705-2.745-2.784-4.571-3.16c-10.207-18.292-21.412-32.577-32.546-43.556c-8.047-7.935-16.791-11.634-25.988-10.994
			c-8.908,0.62-16.342,5.25-21.349,9.441c-3.027-2.089-7.186-2.141-10.283,0.175c-3.877,2.899-4.678,8.444-1.778,12.321l1.883,2.518
			c2.899,3.877,8.444,4.677,12.321,1.778c3.158-2.361,4.273-6.477,3.013-10.018c4.006-3.42,9.962-7.288,16.827-7.752
			c6.646-0.449,13.172,2.436,19.395,8.573c9.029,8.903,19.86,24.37,30.644,41.509c-0.943,2.086-0.862,4.588,0.445,6.674
			l24.534,39.163c9.186,14.663,12.095,32.099,8.192,49.095c-3.903,16.996-8.162,37.441-22.825,46.627
			c-14.663,9.184-38.064,6.069-55.061,2.166c-16.997-3.903-31.416-14.128-40.601-28.791l-26.787-42.76
			c-1.443-2.303-3.995-3.456-6.529-3.266c-10.355-17.421-19.201-34.124-23.016-46.226c-2.629-8.336-2.224-15.46,1.203-21.172
			c3.538-5.898,9.695-9.444,14.563-11.452c2.578,2.738,6.751,3.621,10.293,1.885c4.347-2.131,6.16-7.431,4.029-11.778l-1.384-2.823
			c-2.131-4.347-7.431-6.16-11.779-4.029l0,0c-3.473,1.703-5.322,5.428-4.841,9.075c-6.012,2.548-13.52,7.057-18.13,14.705
			c-4.76,7.895-5.45,17.364-2.051,28.143c4.8,15.223,12.601,32.074,24.65,49.894c-0.177,1.539,0.116,3.141,1.002,4.556
			l26.787,42.759c11.192,17.865,28.744,30.32,49.423,35.068c15.637,3.591,37.552,8.465,52.125,2.85
			c1.899-0.732,3.767-1.559,5.616-2.442c18.066,31.972,11.796,53.206-0.62,62.594c-15.328,11.594-44.036,8.918-69.244-18.621
			c-28.591-31.235-53.998-37.752-70.276-37.719c-5.424,0.011-10.218,0.736-14.319,1.75c-1.216-1.226-2.593-2.329-4.158-3.238
			c-9.578-5.565-21.855-2.312-27.42,7.266c-5.565,9.578-2.312,21.855,7.266,27.42c9.578,5.565,21.855,2.312,27.42-7.266
			c2.112-3.634,2.948-7.656,2.657-11.553c14.336-2.67,38.92-0.032,68.756,32.563c24.841,27.138,53.514,33.674,74.291,27.081
			c4.916-1.561,9.391-3.856,13.267-6.787c10.438-7.893,16.535-20.169,17.169-34.568c0.614-13.934-3.906-29.731-13.079-45.95
			C226.056,213.467,231.971,191.82,236.374,172.647z"/>
		<g>
			<g>
				<g>
					<defs>
						<path id="XMLID_7_" d="M193.626,307.022c-20.776,6.593-49.45,0.058-74.291-27.081C72.359,228.62,38.39,251.56,36.968,252.562
							c-3.063,2.158-7.323,1.457-9.507-1.594c-2.183-3.05-1.519-7.274,1.513-9.481c0.474-0.346,11.824-8.449,30.16-8.488
							c16.279-0.033,41.685,6.484,70.276,37.719c25.208,27.54,53.916,30.215,69.244,18.621c12.996-9.827,19.28-32.624-2.056-67.139
							c-1.983-3.208-0.99-7.417,2.218-9.4c3.207-1.985,7.416-0.991,9.4,2.218c11.039,17.857,16.517,35.371,15.845,50.648
							c-0.634,14.398-6.731,26.675-17.169,34.568C203.017,303.166,198.542,305.461,193.626,307.022z"/>
					</defs>
					<use xlink:href="#XMLID_7_"  style="overflow:visible;fill:#2D4F54;"/>
					<clipPath id="XMLID_00000065789541812521873690000007047905531221686434_">
						<use xlink:href="#XMLID_7_"  style="overflow:visible;"/>
					</clipPath>
					<path style="clip-path:url(#XMLID_00000065789541812521873690000007047905531221686434_);fill:#223D3F;" d="M211.764,218.67
						c-0.708-1.145-1.703-2.003-2.831-2.549c8.771,15.969,13.148,31.471,12.673,45.135c-0.499,14.356-6.337,26.55-16.44,34.337
						c-3.752,2.892-8.092,5.144-12.868,6.661c-20.184,6.405-48.169-0.349-72.59-27.62c-46.182-51.573-84.42-27.221-85.798-26.234
						c-2.455,1.76-5.72,1.556-7.995-0.3c-1.897,2.327,3.26,3.96,5.092,6.521c2.184,3.051,6.444,3.752,9.507,1.594
						c1.423-1.002,35.391-23.942,82.368,27.379c24.841,27.139,53.514,33.674,74.29,27.081c4.916-1.561,9.391-3.856,13.267-6.787
						c10.438-7.893,16.535-20.169,17.169-34.568C228.282,254.041,222.803,236.527,211.764,218.67z"/>
				</g>
			</g>
			<g>
				<g>
					<defs>
						<path id="XMLID_6_" d="M217.343,110.807c-14.097-42.102-33.47-70.66-52.611-89.534c-8.047-7.935-16.791-11.634-25.988-10.994
							c-16.36,1.139-27.77,15.808-28.247,16.432c-1.412,1.85-1.071,4.525,0.79,5.95c1.859,1.423,4.519,1.072,5.945-0.783
							c0.111-0.143,9.641-12.291,22.146-13.134c6.646-0.449,13.172,2.436,19.395,8.573c14.52,14.318,33.7,45.606,49.849,73.532"/>
					</defs>
					<use xlink:href="#XMLID_6_"  style="overflow:visible;fill:#FFFFFF;"/>
					<clipPath id="XMLID_00000111882411429445490970000005849414009191098277_">
						<use xlink:href="#XMLID_6_"  style="overflow:visible;"/>
					</clipPath>
					<g style="opacity:0.03;clip-path:url(#XMLID_00000111882411429445490970000005849414009191098277_);">
						<path d="M188.739,266.539c38.518-51.858,39.352-104.999,32.626-141.707c-9.04-49.345-34.601-88.895-53.742-107.769
							c-8.047-7.935-16.791-11.634-25.988-10.994c-16.36,1.138-32.66,14.537-33.138,15.161c-1.412,1.85-1.071,4.525,0.79,5.95
							c1.859,1.423,4.519,1.072,5.945-0.783c0.111-0.143,14.531-11.02,27.036-11.864c6.646-0.449,13.172,2.436,19.395,8.574
							c38.721,38.182,94.941,154.495,9.796,251.296c-1.572,1.776-1.375,4.443,0.384,5.989c1.76,1.549,4.442,1.376,5.989-0.384
							C181.765,275.536,185.394,271.042,188.739,266.539z"/>
					</g>
				</g>
			</g>
			<g>
				<defs>
					<path id="XMLID_5_" d="M117.413,38.1l4.248-3.176c2.709-2.026,3.268-5.9,1.243-8.609l-5.059-6.766
						c-2.026-2.709-5.9-3.268-8.609-1.243l-4.248,3.176c-2.709,2.026-3.268,5.9-1.243,8.609l5.059,6.766
						C110.83,39.567,114.704,40.126,117.413,38.1z"/>
				</defs>
				<use xlink:href="#XMLID_5_"  style="overflow:visible;fill:#2D4F54;"/>
				<clipPath id="XMLID_00000136392948761296942770000004280509685593361288_">
					<use xlink:href="#XMLID_5_"  style="overflow:visible;"/>
				</clipPath>
				<path style="clip-path:url(#XMLID_00000136392948761296942770000004280509685593361288_);fill:#254244;" d="M120.67,28.418
					l-1.883-2.518c-2.899-3.877-8.444-4.677-12.321-1.778c-1.16,0.867-2.037,1.973-2.63,3.198c-0.189-2.88,1.025-5.801,3.496-7.649
					c3.877-2.899,9.422-2.099,12.321,1.778l1.883,2.518c2.032,2.718,2.24,6.252,0.852,9.123
					C122.28,31.451,121.722,29.825,120.67,28.418z"/>
			</g>
			<g>
				<g>
					<defs>
						<path id="XMLID_4_" d="M95.412,181.679c-31.059-31.728-47.657-61.983-55.74-87.62c-3.399-10.778-2.708-20.247,2.051-28.143
							c8.466-14.045,26.722-17.521,27.495-17.662c2.29-0.414,4.516,1.108,4.937,3.413c0.42,2.303-1.104,4.511-3.405,4.935
							c-0.178,0.034-15.333,2.984-21.78,13.732c-3.427,5.712-3.831,12.836-1.203,21.172c6.132,19.449,25.248,50.775,42.752,77.873"
							/>
					</defs>
					<use xlink:href="#XMLID_4_"  style="overflow:visible;fill:#FFFFFF;"/>
					<clipPath id="XMLID_00000105409156922053409940000008025568189551255692_">
						<use xlink:href="#XMLID_4_"  style="overflow:visible;"/>
					</clipPath>
					<g style="opacity:0.03;clip-path:url(#XMLID_00000105409156922053409940000008025568189551255692_);">
						<path d="M247.078,227.155c-63.711,10.667-111.398-12.797-141.013-35.506c-39.81-30.525-63.375-71.296-71.458-96.934
							c-3.399-10.779-2.708-20.247,2.051-28.143C45.124,52.527,64.477,44.12,65.25,43.979c2.29-0.414,4.516,1.108,4.937,3.413
							c0.42,2.303-1.104,4.511-3.405,4.935c-0.178,0.034-16.43,7.916-22.877,18.664c-3.427,5.712-3.831,12.836-1.203,21.172
							c16.352,51.863,94.287,154.895,219.247,123.191c2.297-0.59,4.581,0.799,5.157,3.07c0.577,2.273-0.798,4.581-3.07,5.157
							C258.263,225.045,252.61,226.228,247.078,227.155z"/>
					</g>
				</g>
			</g>
			<g>
				<g>
					<defs>
						<path id="XMLID_1_" d="M193.659,229.187c-14.573,5.615-36.488,0.741-52.125-2.85c-20.679-4.749-38.231-17.203-49.423-35.068
							l-26.787-42.76c-2.074-3.311-1.072-7.676,2.239-9.75c3.312-2.073,7.676-1.072,9.75,2.239l26.787,42.76
							c9.186,14.663,23.605,24.888,40.601,28.791c16.996,3.903,40.398,7.018,55.061-2.166c14.663-9.186,18.922-29.631,22.825-46.627
							c3.903-16.996,0.994-34.432-8.192-49.095l-24.534-39.163c-2.074-3.311-1.072-7.676,2.239-9.75
							c3.313-2.074,7.676-1.072,9.75,2.239l24.534,39.163c11.192,17.866,14.74,39.093,9.991,59.772
							c-4.749,20.68-11.237,44.258-29.103,55.45C202.916,225.102,198.358,227.377,193.659,229.187z"/>
					</defs>
					<use xlink:href="#XMLID_1_"  style="overflow:visible;fill:#2D4F54;"/>
					<clipPath id="XMLID_00000025427817113700526020000008731255207849382276_">
						<use xlink:href="#XMLID_1_"  style="overflow:visible;"/>
					</clipPath>
					<g style="clip-path:url(#XMLID_00000025427817113700526020000008731255207849382276_);">
						<path style="fill:#223D3F;" d="M229.454,107.47L204.37,67.5c-1.524-2.428-4.261-3.629-6.942-3.328l22.947,37.509
							c11.21,18.324,15.065,39.906,10.856,60.771c-4.209,20.867-7.79,40.31-24.915,51.307c-4.175,2.682-8.555,4.899-13.081,6.643
							c-14.037,5.408-37.665,4.371-52.913,0.429c-20.164-5.213-37.443-18.176-48.653-36.499L65.251,141.15
							c-2.224,2.337-2.686,5.951-0.898,8.801l27.388,43.641c11.442,18.233,29.411,30.93,50.593,35.751
							c16.018,3.646,40.532,4.341,55.473-1.416c4.818-1.856,9.492-4.187,13.959-6.981c18.323-11.458,22.942-31.302,27.839-52.433
							C244.502,147.383,240.896,125.704,229.454,107.47z"/>
					</g>
				</g>
			</g>
			<g>
				<defs>
					<path id="XMLID_3_" d="M76.207,59.6l-4.763,2.335c-3.037,1.489-6.741,0.222-8.23-2.816l-3.718-7.585
						c-1.489-3.037-0.222-6.741,2.815-8.23l4.763-2.335c3.037-1.489,6.741-0.222,8.23,2.815l3.718,7.585
						C80.511,54.408,79.244,58.111,76.207,59.6z"/>
				</defs>
				<use xlink:href="#XMLID_3_"  style="overflow:visible;fill:#2D4F54;"/>
				<clipPath id="XMLID_00000025420223878501233020000014629327563391493292_">
					<use xlink:href="#XMLID_3_"  style="overflow:visible;"/>
				</clipPath>
				<path style="clip-path:url(#XMLID_00000025420223878501233020000014629327563391493292_);fill:#254244;" d="M66.104,58.09
					l-1.384-2.823c-2.131-4.347-0.318-9.647,4.029-11.778c1.3-0.637,2.685-0.915,4.045-0.884c-2.478-1.481-5.632-1.73-8.402-0.372
					c-4.347,2.131-6.16,7.431-4.029,11.779l1.384,2.823c1.494,3.047,4.545,4.842,7.733,4.914
					C68.07,60.904,66.877,59.666,66.104,58.09z"/>
			</g>
			<g>
				<g>
					<defs>
						<path id="XMLID_2_" d="M47.923,258.931c5.565-9.578,2.312-21.855-7.266-27.42c-9.578-5.565-21.855-2.312-27.42,7.266
							c-5.566,9.578-2.312,21.855,7.266,27.42S42.358,268.51,47.923,258.931z"/>
					</defs>
					<use xlink:href="#XMLID_2_"  style="overflow:visible;fill:#FFFFFF;"/>
					<clipPath id="XMLID_00000133528955112741756460000002116663508579542187_">
						<use xlink:href="#XMLID_2_"  style="overflow:visible;"/>
					</clipPath>
					<path style="opacity:0.7;clip-path:url(#XMLID_00000133528955112741756460000002116663508579542187_);fill:#F4F4F4;" d="
						M48.615,239.041c0,0-26.965-25.012-39.43,14.964c0,0-5.545-26.752,12.4-33.453C39.53,213.852,48.615,239.041,48.615,239.041z"
						/>
				</g>
			</g>
			<g>
				<defs>
					<path id="XMLID_30_" d="M43.735,254.867c2.964-6.823-0.164-14.757-6.987-17.721c-6.823-2.964-14.757,0.164-17.722,6.988
						c-2.964,6.823,0.164,14.757,6.987,17.722C32.837,264.819,40.771,261.691,43.735,254.867z"/>
				</defs>
				<use xlink:href="#XMLID_30_"  style="overflow:visible;fill:#254244;"/>
				<clipPath id="XMLID_00000163753045731575323760000004351677176133251470_">
					<use xlink:href="#XMLID_30_"  style="overflow:visible;"/>
				</clipPath>
				<path style="opacity:0.15;clip-path:url(#XMLID_00000163753045731575323760000004351677176133251470_);fill:#4C4C4C;" d="
					M18.053,253.082c0,0,4.085-21.982,25.662-10.947c0,0-10.483-15.245-23.476-2.834C20.239,239.301,15.454,246.488,18.053,253.082z
					"/>
				<g style="opacity:0.04;clip-path:url(#XMLID_00000163753045731575323760000004351677176133251470_);">
					<path style="fill:#FFFFFF;" d="M24.226,255.066c0,0,0.266,0.044,0.731,0.121c0.46,0.079,1.1,0.2,1.838,0.304
						c0.734,0.111,1.559,0.217,2.393,0.263c0.417,0.027,0.836,0.033,1.248,0.025c0.414-0.003,0.818-0.047,1.216-0.086l0.551-0.083
						l0.369-0.07l0.24-0.055c0.379-0.081,0.748-0.191,1.113-0.307c0.729-0.234,1.445-0.527,2.094-0.829
						c0.654-0.295,1.234-0.592,1.669-0.797c0.424-0.215,0.707-0.328,0.707-0.328l0.016-0.006c0.348-0.139,0.742,0.03,0.881,0.378
						c0.042,0.105,0.055,0.217,0.045,0.322c0,0-0.033,0.314-0.191,0.824c-0.151,0.516-0.449,1.221-0.978,1.997
						c-0.529,0.769-1.325,1.59-2.388,2.234c-0.528,0.324-1.122,0.594-1.75,0.796l-0.523,0.142l-0.406,0.094
						c-0.4,0.069-0.68,0.089-1.027,0.131c-1.326,0.099-2.631-0.093-3.74-0.476c-1.114-0.378-2.045-0.917-2.763-1.459
						c-0.365-0.261-0.663-0.556-0.927-0.803c-0.267-0.242-0.465-0.504-0.635-0.7c-0.169-0.201-0.28-0.382-0.365-0.5
						c-0.088-0.128-0.118-0.193-0.118-0.193l-0.006-0.013c-0.153-0.329-0.01-0.72,0.319-0.873
						C23.967,255.06,24.1,255.044,24.226,255.066z"/>
				</g>
			</g>
		</g>
	</g>
	<g id="elements_6_">
		<g style="opacity:0.1;">
			<defs>
				<path id="XMLID_11_" style="opacity:0.1;" d="M365.115,90.931l-75.869-33.658c-3.412-1.514-7.173-1.291-10.28,0.279
					c-3.825,1.932-8.364,1.843-12.281,0.106l-11.893-5.276c-1.907-0.846-4.232-0.221-5.265,1.591
					c-1.186,2.08-0.286,4.698,1.849,5.645l10.249,4.547c4.698,2.084,8.533,5.893,10.218,10.748c1.053,3.034,3.305,5.644,6.455,7.041
					l75.869,33.657c6.033,2.676,13.159-0.07,15.835-6.103l1.216-2.742C373.894,100.733,371.148,93.607,365.115,90.931z"/>
			</defs>
			<use xlink:href="#XMLID_11_"  style="overflow:visible;fill:#254244;"/>
			<clipPath id="XMLID_00000014591689058474369930000011425358869506329729_">
				<use xlink:href="#XMLID_11_"  style="overflow:visible;"/>
			</clipPath>
		</g>
		<g>
			<defs>
				<path id="XMLID_9_" d="M365.782,87.264l-75.869-33.657c-3.412-1.514-7.173-1.292-10.28,0.278
					c-3.825,1.932-8.363,1.844-12.281,0.106l-11.893-5.276c-1.907-0.846-4.232-0.221-5.266,1.591
					c-1.186,2.08-0.286,4.698,1.849,5.645l10.249,4.547c4.698,2.084,8.533,5.893,10.218,10.748c1.053,3.034,3.305,5.644,6.455,7.041
					l75.869,33.658c6.033,2.676,13.159-0.07,15.835-6.103l1.217-2.742C374.561,97.066,371.815,89.941,365.782,87.264z"/>
			</defs>
			<use xlink:href="#XMLID_9_"  style="overflow:visible;fill:#FFFFFF;"/>
			<clipPath id="XMLID_00000123442476452787906700000012537147112071364518_">
				<use xlink:href="#XMLID_9_"  style="overflow:visible;"/>
			</clipPath>
			<path style="opacity:0.2;clip-path:url(#XMLID_00000123442476452787906700000012537147112071364518_);fill:#D1D1D1;" d="
				M373.701,86.675c0,0-15.512,32.502-108.211-13.362l102.887,46.737l12.433-31.315L373.701,86.675z"/>
		</g>
		<g>
			
				<line style="fill:none;stroke:#000000;stroke-linecap:round;stroke-linejoin:round;stroke-miterlimit:10;" x1="285.474" y1="59.296" x2="280.405" y2="70.722"/>
			
				<line style="fill:none;stroke:#000000;stroke-linecap:round;stroke-linejoin:round;stroke-miterlimit:10;" x1="303.413" y1="67.254" x2="298.344" y2="78.68"/>
			
				<line style="fill:none;stroke:#000000;stroke-width:0.9125;stroke-linecap:round;stroke-linejoin:round;stroke-miterlimit:10;" x1="289.535" y1="62.241" x2="285.314" y2="71.755"/>
			
				<line style="fill:none;stroke:#000000;stroke-width:0.9125;stroke-linecap:round;stroke-linejoin:round;stroke-miterlimit:10;" x1="294.02" y1="64.231" x2="289.799" y2="73.745"/>
			
				<line style="fill:none;stroke:#000000;stroke-width:0.9125;stroke-linecap:round;stroke-linejoin:round;stroke-miterlimit:10;" x1="298.504" y1="66.22" x2="294.284" y2="75.734"/>
			
				<line style="fill:none;stroke:#000000;stroke-linecap:round;stroke-linejoin:round;stroke-miterlimit:10;" x1="321.352" y1="75.212" x2="316.283" y2="86.638"/>
			
				<line style="fill:none;stroke:#000000;stroke-width:0.9125;stroke-linecap:round;stroke-linejoin:round;stroke-miterlimit:10;" x1="307.474" y1="70.2" x2="303.253" y2="79.714"/>
			
				<line style="fill:none;stroke:#000000;stroke-width:0.9125;stroke-linecap:round;stroke-linejoin:round;stroke-miterlimit:10;" x1="311.959" y1="72.189" x2="307.738" y2="81.703"/>
			
				<line style="fill:none;stroke:#000000;stroke-width:0.9125;stroke-linecap:round;stroke-linejoin:round;stroke-miterlimit:10;" x1="316.443" y1="74.179" x2="312.223" y2="83.693"/>
			
				<line style="fill:none;stroke:#000000;stroke-linecap:round;stroke-linejoin:round;stroke-miterlimit:10;" x1="339.291" y1="83.17" x2="334.222" y2="94.596"/>
			
				<line style="fill:none;stroke:#000000;stroke-width:0.9125;stroke-linecap:round;stroke-linejoin:round;stroke-miterlimit:10;" x1="325.413" y1="78.158" x2="321.192" y2="87.672"/>
			
				<line style="fill:none;stroke:#000000;stroke-width:0.9125;stroke-linecap:round;stroke-linejoin:round;stroke-miterlimit:10;" x1="329.898" y1="80.147" x2="325.677" y2="89.661"/>
			
				<line style="fill:none;stroke:#000000;stroke-width:0.9125;stroke-linecap:round;stroke-linejoin:round;stroke-miterlimit:10;" x1="334.382" y1="82.137" x2="330.162" y2="91.651"/>
			
				<line style="fill:none;stroke:#000000;stroke-linecap:round;stroke-linejoin:round;stroke-miterlimit:10;" x1="357.23" y1="91.129" x2="352.161" y2="102.555"/>
			
				<line style="fill:none;stroke:#000000;stroke-width:0.9125;stroke-linecap:round;stroke-linejoin:round;stroke-miterlimit:10;" x1="343.352" y1="86.116" x2="339.131" y2="95.63"/>
			
				<line style="fill:none;stroke:#000000;stroke-width:0.9125;stroke-linecap:round;stroke-linejoin:round;stroke-miterlimit:10;" x1="347.837" y1="88.105" x2="343.616" y2="97.619"/>
			
				<line style="fill:none;stroke:#000000;stroke-width:0.9125;stroke-linecap:round;stroke-linejoin:round;stroke-miterlimit:10;" x1="352.321" y1="90.095" x2="348.101" y2="99.609"/>
		</g>
		<g>
			<defs>
				<path id="XMLID_8_" d="M365.387,103.772L253.563,54.165c-1.005-0.446-1.463-1.634-1.017-2.639l0,0
					c0.446-1.006,1.634-1.463,2.639-1.017l111.824,49.608c1.005,0.446,1.463,1.634,1.017,2.639l0,0
					C367.58,103.761,366.392,104.218,365.387,103.772z"/>
			</defs>
			<use xlink:href="#XMLID_8_"  style="overflow:visible;fill:#D1D1D1;"/>
			<clipPath id="XMLID_00000005950960043152622690000008870753721722957727_">
				<use xlink:href="#XMLID_8_"  style="overflow:visible;"/>
			</clipPath>
			<path style="clip-path:url(#XMLID_00000005950960043152622690000008870753721722957727_);fill:#FF6B6B;" d="M345.741,95.057
				l-92.177-40.892c-1.005-0.446-1.463-1.634-1.017-2.639l0,0c0.446-1.006,1.634-1.463,2.639-1.017l92.178,40.892
				c1.005,0.446,1.463,1.634,1.017,2.639l0,0C347.934,95.045,346.746,95.503,345.741,95.057z"/>
		</g>
	</g>
	<g id="elements_5_">
		<defs>
			<rect id="XMLID_17_" x="259.09" y="238.091" width="240.91" height="261.909"/>
		</defs>
		<clipPath id="XMLID_00000105401762282566422530000006317783751702259130_">
			<use xlink:href="#XMLID_17_"  style="overflow:visible;"/>
		</clipPath>
		<path style="opacity:0.1;clip-path:url(#XMLID_00000105401762282566422530000006317783751702259130_);fill:#254244;" d="
			M486.404,362.453c-2.028-5.737-8.323-8.743-14.06-6.714l-26.782,9.47l-1.526-4.638l-33.264,10.944l-0.136-0.43
			c-2.075-6.554-9.135-10.219-15.69-8.144c-6.555,2.075-10.219,9.135-8.144,15.69l0.221,0.697l-28.478,9.369l2.146,6.523
			l-28.871,10.209c-5.737,2.029-8.743,8.323-6.714,14.06l80.833,228.599l161.299-57.036L486.404,362.453z M401.009,363.98
			c5.078,0,9.195,4.117,9.195,9.195c0,5.078-4.117,9.195-9.195,9.195s-9.195-4.117-9.195-9.195
			C391.814,368.097,395.931,363.98,401.009,363.98z"/>
		<path style="clip-path:url(#XMLID_00000105401762282566422530000006317783751702259130_);fill:#254244;" d="M570.571,588.718
			l-161.299,57.036l-80.833-228.599c-2.029-5.737,0.978-12.031,6.714-14.06l140.525-49.69c5.737-2.029,12.032,0.978,14.06,6.714
			L570.571,588.718z"/>
		<path style="clip-path:url(#XMLID_00000105401762282566422530000006317783751702259130_);fill:#FFFFFF;" d="M540.759,564.513
			l-122.48,43.31c-2.635,0.932-5.527-0.449-6.459-3.084l-65.793-186.067c-0.932-2.635,0.449-5.527,3.085-6.459l122.48-43.31
			c2.635-0.932,5.527,0.449,6.459,3.085l65.793,186.067C544.775,560.689,543.394,563.581,540.759,564.513z"/>
		<g style="clip-path:url(#XMLID_00000105401762282566422530000006317783751702259130_);">
			<defs>
				<path id="XMLID_18_" d="M447.37,358.238l-33.264,10.943l-0.136-0.43c-2.075-6.554-9.135-10.219-15.69-8.144
					c-6.554,2.075-10.219,9.135-8.144,15.69l0.221,0.697l-28.478,9.369l8.75,26.597l85.492-28.126L447.37,358.238z M401.75,377
					c-3.176,0-5.75-2.574-5.75-5.75c0-3.176,2.574-5.75,5.75-5.75c3.176,0,5.75,2.574,5.75,5.75
					C407.5,374.426,404.926,377,401.75,377z"/>
			</defs>
			<use xlink:href="#XMLID_18_"  style="overflow:visible;fill:#D1D1D1;"/>
			<clipPath id="XMLID_00000065756451609063362330000015533911244924330408_">
				<use xlink:href="#XMLID_18_"  style="overflow:visible;"/>
			</clipPath>
			<path style="opacity:0.2;clip-path:url(#XMLID_00000065756451609063362330000015533911244924330408_);fill:#B7B7B7;" d="
				M444.92,352.148c0,0-4.167,40.397-60.263,64.408l81.831-17.384L444.92,352.148z"/>
		</g>
		
			<line style="opacity:0.1;clip-path:url(#XMLID_00000105401762282566422530000006317783751702259130_);fill:#254244;stroke:#000000;stroke-linecap:round;stroke-linejoin:round;stroke-miterlimit:10;" x1="372.416" y1="440.458" x2="476.198" y2="404.489"/>
		
			<line style="opacity:0.1;clip-path:url(#XMLID_00000105401762282566422530000006317783751702259130_);fill:#254244;stroke:#000000;stroke-linecap:round;stroke-linejoin:round;stroke-miterlimit:10;" x1="377.867" y1="457.055" x2="481.648" y2="421.086"/>
		
			<line style="opacity:0.1;clip-path:url(#XMLID_00000105401762282566422530000006317783751702259130_);fill:#254244;stroke:#000000;stroke-linecap:round;stroke-linejoin:round;stroke-miterlimit:10;" x1="383.317" y1="473.651" x2="487.099" y2="437.682"/>
		
			<line style="opacity:0.1;clip-path:url(#XMLID_00000105401762282566422530000006317783751702259130_);fill:#254244;stroke:#000000;stroke-linecap:round;stroke-linejoin:round;stroke-miterlimit:10;" x1="388.768" y1="490.248" x2="492.549" y2="454.279"/>
		
			<line style="opacity:0.1;clip-path:url(#XMLID_00000105401762282566422530000006317783751702259130_);fill:#254244;stroke:#000000;stroke-linecap:round;stroke-linejoin:round;stroke-miterlimit:10;" x1="394.218" y1="506.844" x2="498" y2="470.875"/>
	</g>
	<g id="elements_4_">
		<path style="opacity:0.1;fill:#254244;" d="M297.055,395.706l0.869-0.857c1.183-1.167,1.197-3.072,0.03-4.255l-1.438-1.459
			l9.059-8.933l3.773,3.826c1.444,1.464,3.801,1.48,5.264,0.037c0.933-0.921,1.272-2.211,1.025-3.406
			c0.49-0.312,0.956-0.677,1.386-1.101l53.313-52.574c0.217-0.187,0.437-0.369,0.644-0.573l6.95-6.854
			c4.342-4.281,4.986-10.939,1.929-15.939l4.302-4.242c0.745-0.734,0.903-1.838,0.49-2.74l32.265-32.951
			c0.286-0.293-0.137-0.73-0.439-0.454l-34.255,31.34c-0.757-0.143-1.57,0.072-2.157,0.651l-4.302,4.242
			c-4.956-3.127-11.622-2.576-15.964,1.706l-6.95,6.854c-0.528,0.521-0.989,1.084-1.408,1.668l-52.378,51.652
			c-0.43,0.424-0.801,0.885-1.12,1.37c-1.191-0.263-2.487,0.057-3.42,0.978c-1.464,1.444-1.48,3.801-0.037,5.264l3.313,3.359
			l-9.059,8.933l-1.438-1.459c-1.167-1.183-3.072-1.197-4.255-0.03l-0.869,0.857c-1.183,1.167-1.197,3.072-0.03,4.255l10.654,10.803
			C293.967,396.859,295.872,396.872,297.055,395.706z"/>
		<g>
			<g>
				<defs>
					
						<rect id="XMLID_13_" x="287.982" y="371.034" transform="matrix(-0.712 0.7022 -0.7022 -0.712 786.2552 430.6763)" width="33.659" height="11.076"/>
				</defs>
				<use xlink:href="#XMLID_13_"  style="overflow:visible;fill:#D1D1D1;"/>
				<clipPath id="XMLID_00000017482913240155502230000014244139562401629595_">
					<use xlink:href="#XMLID_13_"  style="overflow:visible;"/>
				</clipPath>
				<path style="opacity:0.1;clip-path:url(#XMLID_00000017482913240155502230000014244139562401629595_);fill:#0F1B1C;" d="
					M294.75,365.511l-0.894,0.882c-1.217,1.2-1.231,3.16-0.031,4.377l15.744,15.966c1.2,1.217,3.16,1.231,4.377,0.031l0.894-0.882
					c1.217-1.2,1.231-3.16,0.03-4.377l-15.744-15.966C297.927,364.324,295.967,364.311,294.75,365.511z"/>
			</g>
			<path style="fill:#FFFFFF;" d="M385.339,299.403l33.728-34.445c0.287-0.293-0.136-0.73-0.438-0.454l-35.759,32.715
				L385.339,299.403z"/>
			<path style="fill:#2D4F54;" d="M375.764,302.857l6.452-6.363c0.95-0.937,2.493-0.926,3.43,0.024l0.691,0.7
				c0.937,0.95,0.926,2.493-0.024,3.43l-6.452,6.363c-0.95,0.936-2.493,0.926-3.43-0.024l-0.691-0.7
				C374.804,305.337,374.814,303.794,375.764,302.857z"/>
			<g>
				<defs>
					<path id="XMLID_12_" d="M319.175,380.83l53.313-52.574c0.217-0.187,0.437-0.369,0.644-0.573l6.95-6.854
						c5.056-4.986,5.114-13.203,0.128-18.259l0,0c-4.986-5.056-13.203-5.114-18.259-0.128l-6.95,6.854
						c-0.528,0.521-0.989,1.084-1.408,1.668l-52.378,51.652c-3.287,3.242-3.324,8.534-0.083,11.822l6.222,6.31
						C310.595,384.035,315.888,384.072,319.175,380.83z"/>
				</defs>
				<use xlink:href="#XMLID_12_"  style="overflow:visible;fill:#FFFFFF;"/>
				<clipPath id="XMLID_00000177444063895485873340000006441654094784511164_">
					<use xlink:href="#XMLID_12_"  style="overflow:visible;"/>
				</clipPath>
				
					<polygon style="opacity:0.1;clip-path:url(#XMLID_00000177444063895485873340000006441654094784511164_);fill:#D1D1D1;" points="
					308.487,387.544 311.647,388.641 360.63,340.338 359.572,336.771 				"/>
				
					<rect x="292.453" y="349.689" transform="matrix(-0.712 0.7022 -0.7022 -0.712 809.05 378.7815)" style="clip-path:url(#XMLID_00000177444063895485873340000006441654094784511164_);fill:#D1D1D1;" width="68.793" height="11.219"/>
				<g style="clip-path:url(#XMLID_00000177444063895485873340000006441654094784511164_);">
					<defs>
						
							<rect id="XMLID_14_" x="341.305" y="296.591" transform="matrix(-0.712 0.7022 -0.7022 -0.712 847.8413 283.6027)" width="48.917" height="38.146"/>
					</defs>
					<use xlink:href="#XMLID_14_"  style="overflow:visible;fill:#FF6B6B;"/>
					<clipPath id="XMLID_00000178887787114624963550000005871398509138051253_">
						<use xlink:href="#XMLID_14_"  style="overflow:visible;"/>
					</clipPath>
					
						<rect x="347.38" y="324.445" transform="matrix(0.712 -0.7022 0.7022 0.712 -122.0345 355.0527)" style="opacity:0.2;clip-path:url(#XMLID_00000178887787114624963550000005871398509138051253_);fill:#E56363;" width="48.917" height="3.716"/>
				</g>
				
					<line style="clip-path:url(#XMLID_00000177444063895485873340000006441654094784511164_);fill:none;stroke:#000000;stroke-linecap:round;stroke-linejoin:round;stroke-miterlimit:10;" x1="364.27" y1="295.188" x2="375.525" y2="307.1"/>
				
					<line style="clip-path:url(#XMLID_00000177444063895485873340000006441654094784511164_);fill:none;stroke:#000000;stroke-linecap:round;stroke-linejoin:round;stroke-miterlimit:10;" x1="360.465" y1="299.125" x2="369.759" y2="308.981"/>
				
					<line style="clip-path:url(#XMLID_00000177444063895485873340000006441654094784511164_);fill:none;stroke:#000000;stroke-linecap:round;stroke-linejoin:round;stroke-miterlimit:10;" x1="356.7" y1="303.02" x2="365.995" y2="312.876"/>
				
					<line style="clip-path:url(#XMLID_00000177444063895485873340000006441654094784511164_);fill:none;stroke:#000000;stroke-linecap:round;stroke-linejoin:round;stroke-miterlimit:10;" x1="352.935" y1="306.915" x2="362.23" y2="316.771"/>
				
					<line style="clip-path:url(#XMLID_00000177444063895485873340000006441654094784511164_);fill:none;stroke:#000000;stroke-linecap:round;stroke-linejoin:round;stroke-miterlimit:10;" x1="349.211" y1="310.769" x2="360.466" y2="322.681"/>
				
					<line style="clip-path:url(#XMLID_00000177444063895485873340000006441654094784511164_);fill:none;stroke:#000000;stroke-linecap:round;stroke-linejoin:round;stroke-miterlimit:10;" x1="345.45" y1="314.66" x2="354.744" y2="324.516"/>
				
					<line style="clip-path:url(#XMLID_00000177444063895485873340000006441654094784511164_);fill:none;stroke:#000000;stroke-linecap:round;stroke-linejoin:round;stroke-miterlimit:10;" x1="341.685" y1="318.556" x2="350.979" y2="328.411"/>
				
					<line style="clip-path:url(#XMLID_00000177444063895485873340000006441654094784511164_);fill:none;stroke:#000000;stroke-linecap:round;stroke-linejoin:round;stroke-miterlimit:10;" x1="337.92" y1="322.451" x2="347.215" y2="332.306"/>
				
					<line style="clip-path:url(#XMLID_00000177444063895485873340000006441654094784511164_);fill:none;stroke:#000000;stroke-linecap:round;stroke-linejoin:round;stroke-miterlimit:10;" x1="334.196" y1="326.304" x2="345.451" y2="338.216"/>
				
					<line style="clip-path:url(#XMLID_00000177444063895485873340000006441654094784511164_);fill:none;stroke:#000000;stroke-linecap:round;stroke-linejoin:round;stroke-miterlimit:10;" x1="330.237" y1="330.4" x2="339.532" y2="340.255"/>
				
					<line style="clip-path:url(#XMLID_00000177444063895485873340000006441654094784511164_);fill:none;stroke:#000000;stroke-linecap:round;stroke-linejoin:round;stroke-miterlimit:10;" x1="326.472" y1="334.295" x2="335.767" y2="344.15"/>
				
					<line style="clip-path:url(#XMLID_00000177444063895485873340000006441654094784511164_);fill:none;stroke:#000000;stroke-linecap:round;stroke-linejoin:round;stroke-miterlimit:10;" x1="322.708" y1="338.19" x2="332.002" y2="348.045"/>
				
					<line style="clip-path:url(#XMLID_00000177444063895485873340000006441654094784511164_);fill:none;stroke:#000000;stroke-linecap:round;stroke-linejoin:round;stroke-miterlimit:10;" x1="318.983" y1="342.043" x2="330.238" y2="353.955"/>
				
					<line style="clip-path:url(#XMLID_00000177444063895485873340000006441654094784511164_);fill:none;stroke:#000000;stroke-linecap:round;stroke-linejoin:round;stroke-miterlimit:10;" x1="315.222" y1="345.935" x2="324.516" y2="355.79"/>
				
					<line style="clip-path:url(#XMLID_00000177444063895485873340000006441654094784511164_);fill:none;stroke:#000000;stroke-linecap:round;stroke-linejoin:round;stroke-miterlimit:10;" x1="311.457" y1="349.83" x2="320.752" y2="359.685"/>
				
					<line style="clip-path:url(#XMLID_00000177444063895485873340000006441654094784511164_);fill:none;stroke:#000000;stroke-linecap:round;stroke-linejoin:round;stroke-miterlimit:10;" x1="307.693" y1="353.725" x2="316.987" y2="363.581"/>
				
					<line style="clip-path:url(#XMLID_00000177444063895485873340000006441654094784511164_);fill:none;stroke:#000000;stroke-linecap:round;stroke-linejoin:round;stroke-miterlimit:10;" x1="315.223" y1="369.49" x2="303.968" y2="357.578"/>
			</g>
			<g>
				<defs>
					<path id="XMLID_16_" d="M285.197,381.033l-0.869,0.857c-1.183,1.167-1.197,3.072-0.03,4.255l10.654,10.803
						c1.167,1.183,3.072,1.197,4.255,0.03l0.869-0.857c1.183-1.167,1.197-3.072,0.03-4.255l-10.654-10.803
						C288.286,379.879,286.38,379.866,285.197,381.033z"/>
				</defs>
				<use xlink:href="#XMLID_16_"  style="overflow:visible;fill:#2D4F54;"/>
				<clipPath id="XMLID_00000064329136883172556560000012212071378685721754_">
					<use xlink:href="#XMLID_16_"  style="overflow:visible;"/>
				</clipPath>
				<path style="opacity:0.5;clip-path:url(#XMLID_00000064329136883172556560000012212071378685721754_);fill:#254244;" d="
					M300.258,398.147c0.183-0.18,0.327-0.382,0.454-0.592c-1.08,0.417-2.351,0.187-3.216-0.69l-11.977-12.145
					c-0.983-0.997-1.116-2.504-0.424-3.65c-0.373,0.144-0.724,0.362-1.026,0.66c-1.18,1.163-1.193,3.063-0.03,4.242l11.977,12.145
					C297.179,399.297,299.078,399.31,300.258,398.147z"/>
			</g>
			<g>
				<defs>
					<path id="XMLID_15_" d="M296.674,364.964L296.674,364.964c-1.464,1.444-1.48,3.8-0.037,5.264l14.863,15.072
						c1.444,1.464,3.801,1.48,5.264,0.037l0,0c1.464-1.444,1.48-3.801,0.037-5.264l-14.863-15.072
						C300.494,363.537,298.137,363.521,296.674,364.964z"/>
				</defs>
				<use xlink:href="#XMLID_15_"  style="overflow:visible;fill:#2D4F54;"/>
				<clipPath id="XMLID_00000149357126862538569640000009620383167505075846_">
					<use xlink:href="#XMLID_15_"  style="overflow:visible;"/>
				</clipPath>
				<path style="opacity:0.4;clip-path:url(#XMLID_00000149357126862538569640000009620383167505075846_);fill:#223D3F;" d="
					M316.307,385.454c0.227-0.224,0.406-0.474,0.563-0.734c-1.341,0.517-2.918,0.232-3.991-0.856l-14.863-15.072
					c-1.22-1.237-1.385-3.107-0.527-4.53c-0.463,0.178-0.898,0.449-1.273,0.82c-1.464,1.444-1.48,3.801-0.037,5.264l14.863,15.072
					C312.487,386.882,314.844,386.898,316.307,385.454z"/>
			</g>
		</g>
	</g>
	<g id="elements_3_">
		<path style="opacity:0.1;fill:#254244;" d="M113.864,327.011l-2.363-1.013c-4.89-2.097-10.553,0.167-12.65,5.057l-4.029,9.396
			c-10.976,2.112-20.772,9.441-25.484,20.429l-35.721,83.295c-1.764,4.113-0.537,8.902,3.005,11.638
			c8.097,6.255,24.717,16.619,50.332,21.183c4.5,0.802,8.964-1.604,10.765-5.804l35.549-82.894
			c4.672-10.895,3.289-22.929-2.619-32.302l4.094-9.547c2.097-4.89-0.167-10.553-5.057-12.65l-1.864-0.8"/>
		<g>
			<g>
				<defs>
					<path id="XMLID_49_" d="M92.65,462.975l35.549-82.894c7.54-17.581-0.676-38.134-18.257-45.674h0
						c-17.581-7.54-38.134,0.676-45.674,18.257l-35.721,83.295c-1.764,4.113-0.537,8.902,3.005,11.638
						c8.097,6.255,24.717,16.619,50.332,21.183C86.384,469.581,90.848,467.176,92.65,462.975z"/>
				</defs>
				<use xlink:href="#XMLID_49_"  style="overflow:visible;fill:#2D4F54;"/>
				<clipPath id="XMLID_00000116224995104056775760000002723056355705582773_">
					<use xlink:href="#XMLID_49_"  style="overflow:visible;"/>
				</clipPath>
				<path style="opacity:0.5;clip-path:url(#XMLID_00000116224995104056775760000002723056355705582773_);fill:#254244;" d="
					M119.76,342.57c3.784,8.546,4.166,18.573,0.215,27.787l-35.549,82.894c-1.801,4.201-6.266,6.606-10.765,5.804
					c-20.043-3.571-34.578-10.693-43.832-16.619c-0.312,3.283,1.036,6.588,3.753,8.686c8.097,6.255,24.717,16.619,50.332,21.183
					c4.5,0.802,8.964-1.604,10.765-5.804l35.549-82.894C136.544,368.88,131.799,352.072,119.76,342.57z"/>
				
					<rect x="32.932" y="373.036" transform="matrix(0.9191 0.3941 -0.3941 0.9191 164.9723 -1.0345)" style="clip-path:url(#XMLID_00000116224995104056775760000002723056355705582773_);fill:#FFFFFF;" width="104.145" height="56.14"/>
				
					<rect x="48.442" y="374.142" transform="matrix(0.9191 0.3941 -0.3941 0.9191 156.4244 -7.3783)" style="clip-path:url(#XMLID_00000116224995104056775760000002723056355705582773_);fill:#FF6B6B;" width="95.466" height="5.967"/>
				
					<rect x="26.066" y="423.565" transform="matrix(0.9191 0.3941 -0.3941 0.9191 174.0927 5.4416)" style="clip-path:url(#XMLID_00000116224995104056775760000002723056355705582773_);fill:#FF6B6B;" width="95.466" height="5.967"/>
			</g>
			<g>
				<defs>
					<path id="XMLID_48_" d="M93.706,397.931l-3.053-1.214c-0.924-0.367-1.375-1.414-1.008-2.338l1.214-3.053
						c1.199-3.015-0.287-6.462-3.302-7.661l0,0c-3.015-1.199-6.462,0.287-7.661,3.302l-1.214,3.053
						c-0.367,0.924-1.414,1.375-2.338,1.008l-3.053-1.214c-3.015-1.199-6.462,0.287-7.661,3.302l0,0
						c-1.199,3.015,0.287,6.462,3.302,7.661l3.053,1.214c0.924,0.367,1.375,1.414,1.007,2.338l-1.214,3.053
						c-1.199,3.015,0.287,6.462,3.302,7.661l0,0c3.015,1.199,6.462-0.287,7.661-3.302l1.214-3.053
						c0.367-0.924,1.414-1.375,2.338-1.008l3.053,1.214c3.015,1.199,6.462-0.287,7.661-3.302l0,0
						C98.207,402.577,96.721,399.13,93.706,397.931z"/>
				</defs>
				<use xlink:href="#XMLID_48_"  style="overflow:visible;fill:#E56363;"/>
				<clipPath id="XMLID_00000183225985189480277190000012411122553120884372_">
					<use xlink:href="#XMLID_48_"  style="overflow:visible;"/>
				</clipPath>
				<path style="opacity:0.1;clip-path:url(#XMLID_00000183225985189480277190000012411122553120884372_);fill:#F0F7F1;" d="
					M95.646,396.641l-2.831-1.126c-5.138,7.549-13.881,11.805-22.881,11.326l-0.423,1.064c-1.429,3.594,0.342,7.702,3.936,9.131l0,0
					c3.593,1.429,7.703-0.342,9.132-3.936l1.447-3.639c0.438-1.101,1.685-1.639,2.786-1.201l3.639,1.447
					c3.593,1.429,7.703-0.342,9.131-3.936C101.01,402.179,99.239,398.07,95.646,396.641z"/>
			</g>
			<g style="opacity:0.05;">
				<path style="fill:#FFFFFF;" d="M72.204,354.979c0.003-0.006-0.001-0.024,0.026-0.126c0.022-0.089,0.055-0.22,0.098-0.391
					c0.087-0.318,0.207-0.771,0.396-1.328c0.194-0.555,0.443-1.219,0.769-1.966c0.348-0.731,0.745-1.562,1.248-2.433
					c0.506-0.868,1.105-1.785,1.812-2.711c0.698-0.932,1.519-1.861,2.425-2.778c0.921-0.904,1.929-1.796,3.045-2.603
					c1.11-0.812,2.309-1.557,3.572-2.192c1.26-0.638,2.575-1.185,3.908-1.595c1.327-0.428,2.675-0.712,3.982-0.876
					c1.307-0.163,2.579-0.215,3.767-0.15c1.192,0.027,2.296,0.222,3.301,0.394c0.996,0.238,1.904,0.434,2.671,0.735
					c0.773,0.275,1.439,0.522,1.959,0.803c1.055,0.508,1.618,0.879,1.618,0.879c1.154,0.761,1.473,2.314,0.712,3.469
					c-0.371,0.563-0.931,0.927-1.541,1.064l-0.231,0.051c0,0-0.61,0.135-1.609,0.23c-0.501,0.042-1.103,0.157-1.773,0.219
					c-0.673,0.054-1.413,0.191-2.206,0.274c-0.396,0.043-0.801,0.126-1.219,0.186c-0.419,0.04-0.844,0.124-1.275,0.208
					c-0.868,0.135-1.759,0.327-2.663,0.534c-0.904,0.212-1.826,0.44-2.74,0.739c-0.93,0.255-1.828,0.643-2.736,1.016
					c-0.894,0.404-1.785,0.836-2.632,1.34c-0.867,0.47-1.668,1.038-2.468,1.573c-0.771,0.574-1.538,1.128-2.222,1.722
					c-0.699,0.577-1.345,1.158-1.931,1.715c-1.192,1.1-2.127,2.117-2.777,2.827c-0.319,0.354-0.57,0.631-0.741,0.821
					c-0.085,0.099-0.145,0.155-0.179,0.186c-0.035,0.03-0.067,0.081-0.065,0.074c-0.715,1.076-2.168,1.368-3.244,0.652
					c-0.659-0.438-1.024-1.153-1.043-1.888L72.204,354.979z"/>
			</g>
			<path style="fill:#FFFFFF;" d="M127.219,348.11l-35.893-15.393l5.345-11.998c2.097-4.89,7.761-7.154,12.65-5.057l18.186,7.799
				c4.89,2.097,7.154,7.761,5.057,12.65L127.219,348.11z"/>
		</g>
	</g>
	<g id="elements_2_">
		<g>
			<defs>
				<path id="XMLID_23_" d="M304.628,267.198c1.421,5.667-2.02,11.413-7.687,12.834c-5.667,1.421-11.413-2.021-12.834-7.687
					c-1.421-5.667,2.02-11.413,7.687-12.834C297.46,258.089,303.206,261.531,304.628,267.198z"/>
			</defs>
			<use xlink:href="#XMLID_23_"  style="overflow:visible;fill:#FFFFFF;"/>
			<clipPath id="XMLID_00000000940454425152170560000011867676305656090289_">
				<use xlink:href="#XMLID_23_"  style="overflow:visible;"/>
			</clipPath>
			
				<rect x="280.466" y="268.845" transform="matrix(0.97 -0.2433 0.2433 0.97 -58.6166 80.5892)" style="clip-path:url(#XMLID_00000000940454425152170560000011867676305656090289_);fill:#EAEAEA;" width="33.06" height="17.574"/>
			<g style="clip-path:url(#XMLID_00000000940454425152170560000011867676305656090289_);">
				<defs>
					<path id="XMLID_24_" d="M303.259,267.293c1.24,4.943-1.762,9.955-6.705,11.195c-4.943,1.24-9.955-1.762-11.195-6.705
						c-1.24-4.943,1.762-9.955,6.705-11.195C297.007,259.348,302.019,262.35,303.259,267.293z"/>
				</defs>
				<use xlink:href="#XMLID_24_"  style="overflow:visible;fill:#F2F2F2;"/>
				<clipPath id="XMLID_00000021093561390960693890000013803435126303627167_">
					<use xlink:href="#XMLID_24_"  style="overflow:visible;"/>
				</clipPath>
			</g>
			<polygon style="clip-path:url(#XMLID_00000000940454425152170560000011867676305656090289_);fill:#E5E5E5;" points="
				305.094,267.427 283.668,272.801 285.09,270.453 302.889,265.962 			"/>
			<polygon style="clip-path:url(#XMLID_00000000940454425152170560000011867676305656090289_);fill:#F9F9F9;" points="
				303.665,269.651 286.146,274.071 286.146,274.071 283.638,272.682 305.064,267.309 			"/>
			<path style="clip-path:url(#XMLID_00000000940454425152170560000011867676305656090289_);fill:#FCFCFC;" d="M285.09,270.453"/>
		</g>
		<g>
			<defs>
				<path id="XMLID_19_" d="M278.628,282.531c1.421,5.667-2.02,11.413-7.687,12.834c-5.667,1.421-11.413-2.02-12.834-7.687
					c-1.421-5.667,2.02-11.413,7.687-12.834C271.46,273.422,277.206,276.864,278.628,282.531z"/>
			</defs>
			<use xlink:href="#XMLID_19_"  style="overflow:visible;fill:#FFFFFF;"/>
			<clipPath id="XMLID_00000047044099093151241480000002760380223846011016_">
				<use xlink:href="#XMLID_19_"  style="overflow:visible;"/>
			</clipPath>
			
				<rect x="254.466" y="284.179" transform="matrix(0.97 -0.2433 0.2433 0.97 -63.1284 74.7258)" style="clip-path:url(#XMLID_00000047044099093151241480000002760380223846011016_);fill:#EAEAEA;" width="33.06" height="17.574"/>
			<g style="clip-path:url(#XMLID_00000047044099093151241480000002760380223846011016_);">
				<defs>
					<path id="XMLID_20_" d="M277.259,282.626c1.24,4.943-1.762,9.955-6.705,11.195c-4.943,1.24-9.955-1.762-11.195-6.705
						s1.762-9.955,6.705-11.195C271.007,274.681,276.019,277.683,277.259,282.626z"/>
				</defs>
				<use xlink:href="#XMLID_20_"  style="overflow:visible;fill:#F2F2F2;"/>
				<clipPath id="XMLID_00000180350239613607195270000000117069899265171889_">
					<use xlink:href="#XMLID_20_"  style="overflow:visible;"/>
				</clipPath>
			</g>
			<polygon style="clip-path:url(#XMLID_00000047044099093151241480000002760380223846011016_);fill:#E5E5E5;" points="
				279.094,282.761 257.668,288.134 259.09,285.786 276.889,281.296 			"/>
			<polygon style="clip-path:url(#XMLID_00000047044099093151241480000002760380223846011016_);fill:#F9F9F9;" points="
				277.665,284.985 260.146,289.405 260.146,289.405 257.638,288.016 279.064,282.642 			"/>
			<path style="clip-path:url(#XMLID_00000047044099093151241480000002760380223846011016_);fill:#FCFCFC;" d="M259.09,285.786"/>
		</g>
		<g>
			<defs>
				<path id="XMLID_22_" d="M274.628,250.531c1.421,5.667-2.02,11.413-7.687,12.834c-5.667,1.421-11.413-2.02-12.834-7.687
					c-1.421-5.667,2.02-11.413,7.687-12.834C267.46,241.423,273.206,244.864,274.628,250.531z"/>
			</defs>
			<use xlink:href="#XMLID_22_"  style="overflow:visible;fill:#FFFFFF;"/>
			<clipPath id="XMLID_00000064317605500038909740000011029495814997372291_">
				<use xlink:href="#XMLID_22_"  style="overflow:visible;"/>
			</clipPath>
			
				<rect x="250.466" y="252.179" transform="matrix(0.97 -0.2433 0.2433 0.97 -55.4639 72.7915)" style="clip-path:url(#XMLID_00000064317605500038909740000011029495814997372291_);fill:#EAEAEA;" width="33.06" height="17.574"/>
			<g style="clip-path:url(#XMLID_00000064317605500038909740000011029495814997372291_);">
				<defs>
					<path id="XMLID_28_" d="M273.259,250.626c1.24,4.943-1.762,9.955-6.705,11.195c-4.943,1.24-9.955-1.762-11.195-6.705
						c-1.24-4.943,1.762-9.955,6.705-11.195C267.007,242.681,272.019,245.683,273.259,250.626z"/>
				</defs>
				<use xlink:href="#XMLID_28_"  style="overflow:visible;fill:#F2F2F2;"/>
				<clipPath id="XMLID_00000054967112825819967990000006371799219331365050_">
					<use xlink:href="#XMLID_28_"  style="overflow:visible;"/>
				</clipPath>
			</g>
			<polygon style="clip-path:url(#XMLID_00000064317605500038909740000011029495814997372291_);fill:#E5E5E5;" points="
				275.094,250.761 253.668,256.134 255.09,253.786 272.889,249.296 			"/>
			<polygon style="clip-path:url(#XMLID_00000064317605500038909740000011029495814997372291_);fill:#F9F9F9;" points="
				273.665,252.985 256.146,257.405 256.146,257.405 253.638,256.016 275.064,250.642 			"/>
			<path style="clip-path:url(#XMLID_00000064317605500038909740000011029495814997372291_);fill:#FCFCFC;" d="M255.09,253.786"/>
		</g>
		<g>
			<defs>
				<path id="XMLID_26_" d="M340.82,292.297l-15.748-13.855c-2.199-1.934-2.415-5.316-0.48-7.514l0,0
					c1.934-2.198,5.316-2.415,7.514-0.48l15.748,13.855c2.199,1.934,2.415,5.316,0.48,7.514l0,0
					C346.4,294.015,343.019,294.231,340.82,292.297z"/>
			</defs>
			<use xlink:href="#XMLID_26_"  style="overflow:visible;fill:#EAEAEA;"/>
			<clipPath id="XMLID_00000072259599765295036830000015289462692001259171_">
				<use xlink:href="#XMLID_26_"  style="overflow:visible;"/>
			</clipPath>
			
				<rect x="319.263" y="265.101" transform="matrix(0.7508 0.6605 -0.6605 0.7508 263.961 -148.6214)" style="clip-path:url(#XMLID_00000072259599765295036830000015289462692001259171_);fill:#2D4F54;" width="19.361" height="20.813"/>
			<path style="opacity:0.1;clip-path:url(#XMLID_00000072259599765295036830000015289462692001259171_);fill:#B7B7B7;" d="
				M351.168,282.49c0,0,1.294,4.147-6.38,7.496c-4.498,1.962-25.928-21.092-25.928-21.092l1.832,7.199l18.592,17.217l10.165,1.637
				C349.449,294.946,355.544,286.554,351.168,282.49z"/>
			<g style="opacity:0.1;clip-path:url(#XMLID_00000072259599765295036830000015289462692001259171_);">
				<path style="fill:#FFFFFF;" d="M325.975,271.697c-0.009,0.009,0.075-0.118,0.224-0.272c0.15-0.154,0.388-0.35,0.71-0.514
					c0.32-0.161,0.726-0.312,1.172-0.358c0.446-0.065,0.931-0.042,1.393,0.056c0.226,0.063,0.462,0.099,0.674,0.186
					c0.21,0.091,0.423,0.167,0.612,0.267c0.379,0.207,0.705,0.431,0.953,0.663c0.261,0.211,0.428,0.446,0.553,0.596
					c0.119,0.158,0.179,0.253,0.179,0.253c0.103,0.162,0.056,0.378-0.106,0.481c-0.072,0.046-0.155,0.062-0.233,0.052l-0.031-0.004
					c0,0-0.11-0.015-0.291-0.049c-0.182-0.03-0.418-0.112-0.707-0.167c-0.563-0.154-1.272-0.304-1.94-0.425
					c-0.17-0.016-0.337-0.039-0.501-0.068c-0.165-0.016-0.327-0.032-0.484-0.048c-0.317-0.035-0.615-0.044-0.887-0.065
					c-0.281-0.01-0.515-0.019-0.679-0.025c-0.173-0.001-0.262-0.019-0.27-0.01c-0.151,0.094-0.35,0.048-0.444-0.104
					C325.777,271.99,325.823,271.791,325.975,271.697z"/>
			</g>
		</g>
		<g>
			<defs>
				<path id="XMLID_25_" d="M314.697,306.889l-20.922,1.498c-2.921,0.209-5.482-2.009-5.691-4.93l0,0
					c-0.209-2.921,2.01-5.482,4.931-5.691l20.922-1.498c2.921-0.209,5.482,2.01,5.691,4.93v0
					C319.837,304.118,317.618,306.679,314.697,306.889z"/>
			</defs>
			<use xlink:href="#XMLID_25_"  style="overflow:visible;fill:#EAEAEA;"/>
			<clipPath id="XMLID_00000067941098993335459230000016378297964292239277_">
				<use xlink:href="#XMLID_25_"  style="overflow:visible;"/>
			</clipPath>
			
				<rect x="284.72" y="293.164" transform="matrix(0.9974 -0.0714 0.0714 0.9974 -20.935 21.8078)" style="clip-path:url(#XMLID_00000067941098993335459230000016378297964292239277_);fill:#FF6B6B;" width="19.362" height="20.813"/>
			<path style="opacity:0.1;clip-path:url(#XMLID_00000067941098993335459230000016378297964292239277_);fill:#B7B7B7;" d="
				M314.97,292.634c0,0,3.863,1.988,0.864,9.805c-1.758,4.582-33.221,3.673-33.221,3.673l6.415,3.746l25.313-1.166l8.299-6.094
				C322.639,302.599,320.936,292.369,314.97,292.634z"/>
			<g style="opacity:0.1;clip-path:url(#XMLID_00000067941098993335459230000016378297964292239277_);">
				<path style="fill:#FFFFFF;" d="M289.603,303.012c0,0.013-0.032-0.136-0.036-0.35c-0.004-0.215,0.023-0.522,0.132-0.867
					c0.11-0.341,0.287-0.735,0.567-1.087c0.267-0.363,0.623-0.692,1.017-0.953c0.203-0.117,0.395-0.259,0.605-0.349
					c0.212-0.086,0.415-0.184,0.62-0.249c0.414-0.124,0.802-0.199,1.141-0.214c0.334-0.038,0.618,0.007,0.813,0.024
					c0.196,0.026,0.306,0.05,0.306,0.05c0.188,0.04,0.308,0.225,0.268,0.413c-0.018,0.083-0.064,0.154-0.127,0.202l-0.025,0.019
					c0,0-0.088,0.068-0.239,0.173c-0.149,0.109-0.373,0.22-0.615,0.387c-0.505,0.293-1.109,0.693-1.664,1.084
					c-0.131,0.11-0.264,0.213-0.4,0.309c-0.127,0.106-0.252,0.211-0.374,0.312c-0.247,0.201-0.463,0.407-0.669,0.586
					c-0.204,0.193-0.375,0.353-0.494,0.466c-0.122,0.122-0.197,0.173-0.197,0.185c-0.039,0.174-0.212,0.283-0.386,0.244
					C289.673,303.358,289.564,303.186,289.603,303.012z"/>
			</g>
		</g>
		<g>
			<defs>
				<path id="XMLID_38_" d="M434.216,36.479c1.96,5.503-0.912,11.554-6.416,13.514c-5.504,1.96-11.554-0.912-13.515-6.416
					c-1.96-5.503,0.912-11.554,6.416-13.514C426.204,28.103,432.255,30.976,434.216,36.479z"/>
			</defs>
			<use xlink:href="#XMLID_38_"  style="overflow:visible;fill:#FFFFFF;"/>
			<clipPath id="XMLID_00000126290250954572764800000018187553239682500232_">
				<use xlink:href="#XMLID_38_"  style="overflow:visible;"/>
			</clipPath>
			
				<rect x="411.094" y="38.813" transform="matrix(0.942 -0.3355 0.3355 0.942 8.8173 146.2363)" style="clip-path:url(#XMLID_00000126290250954572764800000018187553239682500232_);fill:#EAEAEA;" width="33.06" height="17.574"/>
			<g style="clip-path:url(#XMLID_00000126290250954572764800000018187553239682500232_);">
				<defs>
					<path id="XMLID_39_" d="M432.862,36.706c1.71,4.801-0.796,10.078-5.596,11.788c-4.801,1.71-10.079-0.796-11.789-5.596
						c-1.71-4.801,0.796-10.078,5.596-11.788C425.874,29.4,431.152,31.906,432.862,36.706z"/>
				</defs>
				<use xlink:href="#XMLID_39_"  style="overflow:visible;fill:#F2F2F2;"/>
				<clipPath id="XMLID_00000119093759254611883040000012287335551674326925_">
					<use xlink:href="#XMLID_39_"  style="overflow:visible;"/>
				</clipPath>
			</g>
			<polygon style="clip-path:url(#XMLID_00000126290250954572764800000018187553239682500232_);fill:#E5E5E5;" points="
				434.702,36.663 413.893,44.075 415.082,41.601 432.366,35.417 			"/>
			<polygon style="clip-path:url(#XMLID_00000126290250954572764800000018187553239682500232_);fill:#F9F9F9;" points="
				433.494,39.014 416.482,45.101 416.482,45.101 413.852,43.959 434.661,36.548 			"/>
			<path style="clip-path:url(#XMLID_00000126290250954572764800000018187553239682500232_);fill:#FCFCFC;" d="M415.082,41.601"/>
		</g>
		<g>
			<defs>
				<path id="XMLID_35_" d="M409.813,54.245c1.96,5.504-0.912,11.554-6.415,13.514c-5.504,1.96-11.554-0.912-13.515-6.416
					c-1.96-5.504,0.912-11.554,6.416-13.514C401.802,45.869,407.852,48.741,409.813,54.245z"/>
			</defs>
			<use xlink:href="#XMLID_35_"  style="overflow:visible;fill:#FFFFFF;"/>
			<clipPath id="XMLID_00000143577208991273741150000006027134254933886394_">
				<use xlink:href="#XMLID_35_"  style="overflow:visible;"/>
			</clipPath>
			
				<rect x="386.691" y="56.579" transform="matrix(0.942 -0.3355 0.3355 0.942 1.4422 139.0795)" style="clip-path:url(#XMLID_00000143577208991273741150000006027134254933886394_);fill:#EAEAEA;" width="33.06" height="17.574"/>
			<g style="clip-path:url(#XMLID_00000143577208991273741150000006027134254933886394_);">
				<defs>
					<path id="XMLID_36_" d="M408.459,54.472c1.71,4.801-0.796,10.079-5.596,11.788c-4.801,1.71-10.079-0.796-11.789-5.596
						c-1.71-4.801,0.796-10.079,5.596-11.788C401.471,47.165,406.749,49.671,408.459,54.472z"/>
				</defs>
				<use xlink:href="#XMLID_36_"  style="overflow:visible;fill:#F2F2F2;"/>
				<clipPath id="XMLID_00000111878099952926682520000017570349007833099173_">
					<use xlink:href="#XMLID_36_"  style="overflow:visible;"/>
				</clipPath>
			</g>
			<polygon style="clip-path:url(#XMLID_00000143577208991273741150000006027134254933886394_);fill:#E5E5E5;" points="
				410.299,54.429 389.49,61.84 390.679,59.366 407.964,53.183 			"/>
			<polygon style="clip-path:url(#XMLID_00000143577208991273741150000006027134254933886394_);fill:#F9F9F9;" points="
				409.091,56.78 392.079,62.866 392.079,62.866 389.449,61.725 410.258,54.313 			"/>
			<path style="clip-path:url(#XMLID_00000143577208991273741150000006027134254933886394_);fill:#FCFCFC;" d="M390.679,59.366"/>
		</g>
		<g>
			<defs>
				<path id="XMLID_33_" d="M448.06,75.017l-20.68,3.506c-2.887,0.49-5.65-1.472-6.139-4.36l0,0c-0.489-2.887,1.473-5.65,4.36-6.139
					l20.68-3.506c2.887-0.49,5.65,1.472,6.139,4.36l0,0C452.909,71.764,450.947,74.527,448.06,75.017z"/>
			</defs>
			<use xlink:href="#XMLID_33_"  style="overflow:visible;fill:#EAEAEA;"/>
			<clipPath id="XMLID_00000075162946045799785310000002728489313900172173_">
				<use xlink:href="#XMLID_33_"  style="overflow:visible;"/>
			</clipPath>
			
				<rect x="417.858" y="63.261" transform="matrix(0.9859 -0.1671 0.1671 0.9859 -6.2987 72.4953)" style="clip-path:url(#XMLID_00000075162946045799785310000002728489313900172173_);fill:#223D3F;" width="19.362" height="20.813"/>
			<path style="opacity:0.1;clip-path:url(#XMLID_00000075162946045799785310000002728489313900172173_);fill:#B7B7B7;" d="
				M446.96,60.802c0,0,4.036,1.607,1.804,9.677c-1.308,4.729-32.713,6.855-32.713,6.855l6.746,3.111l25.083-3.598l7.674-6.865
				C455.552,69.982,452.872,59.964,446.96,60.802z"/>
			<g style="opacity:0.1;clip-path:url(#XMLID_00000075162946045799785310000002728489313900172173_);">
				<path style="fill:#FFFFFF;" d="M422.709,73.574c0.002,0.012-0.045-0.132-0.07-0.345c-0.025-0.213-0.028-0.522,0.048-0.876
					c0.077-0.35,0.215-0.76,0.46-1.136c0.231-0.387,0.554-0.749,0.92-1.047c0.191-0.136,0.368-0.296,0.569-0.406
					c0.203-0.106,0.396-0.223,0.593-0.307c0.4-0.163,0.779-0.276,1.115-0.323c0.329-0.07,0.616-0.052,0.811-0.054
					c0.198,0.007,0.31,0.02,0.31,0.02c0.191,0.022,0.328,0.194,0.307,0.385c-0.01,0.085-0.049,0.159-0.107,0.214l-0.023,0.021
					c0,0-0.081,0.076-0.221,0.195c-0.138,0.123-0.35,0.255-0.575,0.444c-0.474,0.341-1.037,0.796-1.552,1.24
					c-0.12,0.122-0.242,0.237-0.368,0.346c-0.116,0.118-0.231,0.234-0.342,0.346c-0.227,0.224-0.422,0.45-0.609,0.648
					c-0.185,0.212-0.339,0.388-0.447,0.511c-0.11,0.133-0.18,0.191-0.178,0.203c-0.022,0.177-0.184,0.302-0.36,0.28
					C422.812,73.912,422.687,73.751,422.709,73.574z"/>
			</g>
		</g>
		<g style="opacity:0.1;">
			<defs>
				<path id="XMLID_37_" style="opacity:0.1;" d="M409.309,55.968c1.96,5.504-0.912,11.554-6.415,13.514
					c-5.504,1.96-11.554-0.912-13.515-6.416c-1.96-5.504,0.912-11.554,6.415-13.514C401.298,47.592,407.349,50.464,409.309,55.968z"
					/>
			</defs>
			<use xlink:href="#XMLID_37_"  style="overflow:visible;fill:#254244;"/>
			<clipPath id="XMLID_00000159445028786846112460000006722498569775339193_">
				<use xlink:href="#XMLID_37_"  style="overflow:visible;"/>
			</clipPath>
			<path style="clip-path:url(#XMLID_00000159445028786846112460000006722498569775339193_);fill:#254244;" d="M390.176,61.089"/>
		</g>
		<g style="opacity:0.1;">
			<defs>
				<path id="XMLID_34_" style="opacity:0.1;" d="M449.156,76.387l-20.68,3.506c-2.887,0.489-5.65-1.472-6.139-4.36l0,0
					c-0.489-2.887,1.473-5.65,4.36-6.139l20.68-3.506c2.887-0.489,5.65,1.472,6.139,4.36l0,0
					C454.005,73.135,452.043,75.897,449.156,76.387z"/>
			</defs>
			<use xlink:href="#XMLID_34_"  style="overflow:visible;fill:#254244;"/>
			<clipPath id="XMLID_00000072244588071809928130000005472996343699444409_">
				<use xlink:href="#XMLID_34_"  style="overflow:visible;"/>
			</clipPath>
		</g>
		<g style="opacity:0.1;">
			<defs>
				<path id="XMLID_40_" style="opacity:0.1;" d="M433.712,38.202c1.96,5.504-0.912,11.554-6.416,13.514
					c-5.503,1.96-11.554-0.912-13.515-6.416s0.912-11.554,6.416-13.514C425.701,29.826,431.752,32.699,433.712,38.202z"/>
			</defs>
			<use xlink:href="#XMLID_40_"  style="overflow:visible;fill:#254244;"/>
			<clipPath id="XMLID_00000036948520901317473970000016910225312459624636_">
				<use xlink:href="#XMLID_40_"  style="overflow:visible;"/>
			</clipPath>
			<path style="clip-path:url(#XMLID_00000036948520901317473970000016910225312459624636_);fill:#254244;" d="M414.579,43.324"/>
		</g>
		<g style="opacity:0.1;">
			<defs>
				<path id="XMLID_27_" style="opacity:0.1;" d="M303.961,268.864c1.421,5.667-2.02,11.413-7.687,12.834
					c-5.667,1.421-11.413-2.02-12.834-7.687c-1.421-5.667,2.02-11.413,7.687-12.834
					C296.793,259.756,302.539,263.198,303.961,268.864z"/>
			</defs>
			<use xlink:href="#XMLID_27_"  style="overflow:visible;fill:#254244;"/>
			<clipPath id="XMLID_00000173863252812929111840000001012452822324819124_">
				<use xlink:href="#XMLID_27_"  style="overflow:visible;"/>
			</clipPath>
			<path style="clip-path:url(#XMLID_00000173863252812929111840000001012452822324819124_);fill:#254244;" d="M284.423,272.12"/>
		</g>
		<g style="opacity:0.1;">
			<defs>
				
					<ellipse id="XMLID_21_" transform="matrix(0.6447 -0.7645 0.7645 0.6447 -124.1029 306.5498)" style="opacity:0.1;" cx="267.7" cy="286.771" rx="10.578" ry="10.578"/>
			</defs>
			<use xlink:href="#XMLID_21_"  style="overflow:visible;fill:#254244;"/>
			<clipPath id="XMLID_00000093897157044473664400000014486396255676739260_">
				<use xlink:href="#XMLID_21_"  style="overflow:visible;"/>
			</clipPath>
			<path style="clip-path:url(#XMLID_00000093897157044473664400000014486396255676739260_);fill:#254244;" d="M258.423,287.453"/>
		</g>
		<g style="opacity:0.1;">
			<defs>
				
					<ellipse id="XMLID_29_" transform="matrix(0.6447 -0.7645 0.7645 0.6447 -101.0613 292.121)" style="opacity:0.1;" cx="263.7" cy="254.771" rx="10.578" ry="10.578"/>
			</defs>
			<use xlink:href="#XMLID_29_"  style="overflow:visible;fill:#254244;"/>
			<clipPath id="XMLID_00000137107432347301053960000002444171752296608937_">
				<use xlink:href="#XMLID_29_"  style="overflow:visible;"/>
			</clipPath>
			<path style="clip-path:url(#XMLID_00000137107432347301053960000002444171752296608937_);fill:#254244;" d="M254.423,255.453"/>
		</g>
		<g style="opacity:0.1;">
			<defs>
				<path id="XMLID_31_" style="opacity:0.1;" d="M340.446,294.011l-15.748-13.855c-2.199-1.934-2.415-5.316-0.48-7.514l0,0
					c1.934-2.199,5.316-2.415,7.514-0.48l15.748,13.855c2.199,1.934,2.415,5.316,0.48,7.515l0,0
					C346.026,295.729,342.645,295.946,340.446,294.011z"/>
			</defs>
			<use xlink:href="#XMLID_31_"  style="overflow:visible;fill:#254244;"/>
			<clipPath id="XMLID_00000077325297695651122510000002547113031273745830_">
				<use xlink:href="#XMLID_31_"  style="overflow:visible;"/>
			</clipPath>
		</g>
		<g style="opacity:0.1;">
			<defs>
				<path id="XMLID_32_" style="opacity:0.1;" d="M315.656,308.358l-20.922,1.499c-2.921,0.209-5.482-2.01-5.691-4.931l0,0
					c-0.209-2.921,2.01-5.482,4.931-5.691l20.922-1.498c2.921-0.209,5.482,2.009,5.691,4.93l0,0
					C320.796,305.588,318.577,308.149,315.656,308.358z"/>
			</defs>
			<use xlink:href="#XMLID_32_"  style="overflow:visible;fill:#254244;"/>
			<clipPath id="XMLID_00000000212972773530223350000004863649077697117569_">
				<use xlink:href="#XMLID_32_"  style="overflow:visible;"/>
			</clipPath>
		</g>
	</g>
	<g id="elements_1_">
		<defs>
			<rect id="XMLID_41_" x="172" y="357" width="94" height="143"/>
		</defs>
		<clipPath id="XMLID_00000007393635422608303360000010511041076236604073_">
			<use xlink:href="#XMLID_41_"  style="overflow:visible;"/>
		</clipPath>
		<path style="opacity:0.1;clip-path:url(#XMLID_00000007393635422608303360000010511041076236604073_);fill:#254244;" d="
			M251.324,386.513c-8.496-4.839-20.383-12.019-30.475-19.631c-6.579-4.962-16.077-1.801-18.413,6.101
			c-2.893,9.785-7.366,21.933-13.886,32.553c-3.835,6.246-1.042,14.442,5.781,17.119l22.507,8.832l6.799,21.217l6.055-1.94
			l5.041,15.73c3.698,11.54-2.681,23.937-14.221,27.635l-33.194,10.637c-3.419,1.095-5.302,4.755-4.206,8.173
			c1.096,3.419,4.755,5.302,8.174,4.206l33.194-10.637c18.366-5.886,28.52-25.616,22.634-43.982l-5.041-15.73l5.69-1.823
			l-6.661-20.785l14.134-20.772C259.113,397.717,257.315,389.926,251.324,386.513z"/>
		<g style="clip-path:url(#XMLID_00000007393635422608303360000010511041076236604073_);">
			<g>
				<defs>
					<path id="XMLID_44_" d="M218.035,505.577l-33.194,10.637c-3.419,1.095-7.078-0.788-8.174-4.206
						c-1.095-3.419,0.788-7.078,4.206-8.174l33.194-10.637c11.54-3.698,17.92-16.095,14.221-27.635l-9.271-28.931
						c-1.096-3.419,0.788-7.078,4.206-8.174c3.419-1.095,7.078,0.788,8.174,4.206l9.271,28.931
						C246.554,479.961,236.401,499.691,218.035,505.577z"/>
				</defs>
				<use xlink:href="#XMLID_44_"  style="overflow:visible;fill:#FFFFFF;"/>
				<clipPath id="XMLID_00000181791733256369081830000004427997473167533744_">
					<use xlink:href="#XMLID_44_"  style="overflow:visible;"/>
				</clipPath>
				
					<line style="opacity:0.1;clip-path:url(#XMLID_00000181791733256369081830000004427997473167533744_);fill:#254244;stroke:#000000;stroke-linecap:round;stroke-linejoin:round;stroke-miterlimit:10;" x1="182.416" y1="496.17" x2="192.487" y2="527.596"/>
				
					<line style="opacity:0.1;clip-path:url(#XMLID_00000181791733256369081830000004427997473167533744_);fill:#254244;stroke:#000000;stroke-linecap:round;stroke-linejoin:round;stroke-miterlimit:10;" x1="191.036" y1="489.207" x2="201.107" y2="520.633"/>
				
					<line style="opacity:0.1;clip-path:url(#XMLID_00000181791733256369081830000004427997473167533744_);fill:#254244;stroke:#000000;stroke-linecap:round;stroke-linejoin:round;stroke-miterlimit:10;" x1="212.281" y1="480.488" x2="240.147" y2="498.165"/>
				
					<line style="opacity:0.1;clip-path:url(#XMLID_00000181791733256369081830000004427997473167533744_);fill:#254244;stroke:#000000;stroke-linecap:round;stroke-linejoin:round;stroke-miterlimit:10;" x1="213.587" y1="471.011" x2="244.421" y2="482.767"/>
				
					<line style="opacity:0.1;clip-path:url(#XMLID_00000181791733256369081830000004427997473167533744_);fill:#254244;stroke:#000000;stroke-linecap:round;stroke-linejoin:round;stroke-miterlimit:10;" x1="202.519" y1="488.244" x2="213.025" y2="519.527"/>
				
					<line style="opacity:0.1;clip-path:url(#XMLID_00000181791733256369081830000004427997473167533744_);fill:#254244;stroke:#000000;stroke-linecap:round;stroke-linejoin:round;stroke-miterlimit:10;" x1="209.015" y1="480.328" x2="224.711" y2="509.356"/>
				
					<line style="opacity:0.1;clip-path:url(#XMLID_00000181791733256369081830000004427997473167533744_);fill:#254244;stroke:#000000;stroke-linecap:round;stroke-linejoin:round;stroke-miterlimit:10;" x1="217.12" y1="468.659" x2="249.623" y2="462.958"/>
				
					<line style="opacity:0.1;clip-path:url(#XMLID_00000181791733256369081830000004427997473167533744_);fill:#254244;stroke:#000000;stroke-linecap:round;stroke-linejoin:round;stroke-miterlimit:10;" x1="211.396" y1="459.172" x2="243.899" y2="453.471"/>
				
					<line style="opacity:0.1;clip-path:url(#XMLID_00000181791733256369081830000004427997473167533744_);fill:#254244;stroke:#000000;stroke-linecap:round;stroke-linejoin:round;stroke-miterlimit:10;" x1="212.024" y1="446.207" x2="244.881" y2="443.134"/>
				
					<line style="opacity:0.1;clip-path:url(#XMLID_00000181791733256369081830000004427997473167533744_);fill:#254244;stroke:#000000;stroke-linecap:round;stroke-linejoin:round;stroke-miterlimit:10;" x1="207.08" y1="436.292" x2="239.936" y2="433.219"/>
				<path style="opacity:0.4;clip-path:url(#XMLID_00000181791733256369081830000004427997473167533744_);fill:#D3D3D3;" d="
					M226.724,428.801c0.319,0.484,0.584,1.015,0.77,1.595l9.271,28.931c5.886,18.366-4.268,38.096-22.634,43.982l-33.194,10.637
					c-0.58,0.186-1.165,0.279-1.745,0.301c1.565,2.372,4.565,3.521,7.404,2.611l33.194-10.637
					c18.366-5.886,28.52-25.616,22.634-43.982l-9.271-28.931C232.243,430.469,229.564,428.695,226.724,428.801z"/>
			</g>
		</g>
		<g style="clip-path:url(#XMLID_00000007393635422608303360000010511041076236604073_);">
			<defs>
				<path id="XMLID_43_" d="M187.887,421.723l28.96,11.364c5.134,2.015,10.979,0.208,14.081-4.351l17.862-26.252
					c3.878-5.7,2.081-13.491-3.91-16.903c-8.496-4.839-20.383-12.019-30.475-19.631c-6.578-4.962-16.077-1.801-18.413,6.101
					c-2.893,9.785-7.366,21.933-13.886,32.553C178.272,410.85,181.064,419.046,187.887,421.723z"/>
			</defs>
			<use xlink:href="#XMLID_43_"  style="overflow:visible;fill:#A9FBFF;"/>
			<clipPath id="XMLID_00000047738463282805460350000009311438802625307051_">
				<use xlink:href="#XMLID_43_"  style="overflow:visible;"/>
			</clipPath>
			<path style="opacity:0.2;clip-path:url(#XMLID_00000047738463282805460350000009311438802625307051_);fill:#FFFFFF;" d="
				M203.5,359.357c0,0,35.512,26.949,30.5,41.643s-28.222,48.678-28.222,48.678L222.637,454L261,391L203.5,359.357z"/>
		</g>
		<g style="clip-path:url(#XMLID_00000007393635422608303360000010511041076236604073_);">
			<defs>
				<path id="XMLID_42_" d="M241.318,444.041l-8.748-27.299c-2.014-6.285-8.804-9.78-15.09-7.765l-1.27,0.407
					c-6.285,2.014-9.78,8.805-7.765,15.09l8.748,27.299L241.318,444.041z"/>
			</defs>
			<use xlink:href="#XMLID_42_"  style="overflow:visible;fill:#254244;"/>
			<clipPath id="XMLID_00000016064904895649451130000008858499772988088995_">
				<use xlink:href="#XMLID_42_"  style="overflow:visible;"/>
			</clipPath>
			<path style="clip-path:url(#XMLID_00000016064904895649451130000008858499772988088995_);fill:#1D3435;" d="M228.457,419.952
				l9.813,33.391l4.591-1.604l-9.885-33.635c-2.276-7.744-9.948-12.049-17.05-9.568l-1.435,0.501
				c-0.868,0.303-1.688,0.697-2.456,1.165C218.956,408.178,226.248,412.436,228.457,419.952z"/>
		</g>
	</g>
	<g id="elements">
		<path style="opacity:0.1;fill:#254244;" d="M432.763,161.44c-0.09-0.017-0.18-0.029-0.27-0.046c-0.507-0.401-1.1-0.707-1.776-0.85
			L309.38,134.922c-0.89-0.188-1.773-0.085-2.553,0.241c-10.785-1.681-21.642,0.724-30.74,6.865
			c-9.547,6.445-16.012,16.223-18.206,27.532c-4.301,22.176,9.305,43.737,30.689,49.722c0.607,0.859,1.517,1.507,2.628,1.742
			l121.337,25.623c1.189,0.251,2.364-0.016,3.3-0.643c0.17,0.035,0.336,0.079,0.507,0.112c1.974,0.383,3.952,0.627,5.926,0.736
			c9.332,0.515,18.535-2.01,26.416-7.33c9.547-6.446,16.013-16.224,18.207-27.533C471.416,188.644,456.106,165.968,432.763,161.44z
			 M266.961,200.221c-5.997-8.883-8.176-19.57-6.135-30.091c2.04-10.522,8.055-19.619,16.939-25.617
			c7.332-4.95,15.894-7.299,24.578-6.82c0.677,0.037,1.355,0.11,2.032,0.182c-0.04,0.129-0.095,0.251-0.123,0.386l-16.394,77.634
			c-0.003,0.014-0.002,0.028-0.004,0.041C279.346,213.2,272.04,207.744,266.961,200.221z M463.944,211.417
			c-2.04,10.523-8.056,19.62-16.94,25.617c-8.671,5.856-19.065,8.06-29.34,6.263l16.392-77.624c0.061-0.287,0.09-0.573,0.092-0.855
			C454.759,169.881,468.028,190.356,463.944,211.417z"/>
		<g>
			
				<ellipse transform="matrix(0.9761 -0.2172 0.2172 0.9761 -30.5885 69.0313)" style="fill:none;stroke:#FFFFFF;stroke-width:3;stroke-miterlimit:10;" cx="298.789" cy="173.689" rx="41.626" ry="41.626"/>
			
				<ellipse transform="matrix(0.9961 -0.0884 0.0884 0.9961 -15.9919 38.1728)" style="fill:none;stroke:#FFFFFF;stroke-width:3;stroke-miterlimit:10;" cx="423.124" cy="199.697" rx="41.626" ry="41.626"/>
			<g>
				<defs>
					<path id="XMLID_10_" d="M411.106,242.566l-121.337-25.623c-2.338-0.494-3.833-2.789-3.339-5.127l16.394-77.634
						c0.494-2.338,2.789-3.833,5.127-3.339l121.337,25.623c2.338,0.494,3.833,2.789,3.339,5.127l-16.394,77.634
						C415.74,241.564,413.444,243.06,411.106,242.566z"/>
				</defs>
				<use xlink:href="#XMLID_10_"  style="overflow:visible;fill:#FFFFFF;"/>
				<clipPath id="XMLID_00000052786192459992607210000005269374639865347989_">
					<use xlink:href="#XMLID_10_"  style="overflow:visible;"/>
				</clipPath>
				<path style="opacity:0.04;clip-path:url(#XMLID_00000052786192459992607210000005269374639865347989_);fill:#D3D3D3;" d="
					M436.138,149.92l-8.113-1.49c-10.036,43.155-49.337,74.733-95.337,73.414c-18.957-0.543-36.442-6.621-50.997-16.609
					l-1.845,10.04c-0.477,2.599,1.242,5.092,3.841,5.57l134.868,24.777c2.599,0.478,5.092-1.242,5.57-3.841l15.853-86.292
					C440.456,152.891,438.737,150.397,436.138,149.92z"/>
			</g>
			<path style="opacity:0.14;fill:#D3D3D3;" d="M315.603,151.172l102.059,23.48c0.499,0.115,0.428,0.845-0.083,0.863l-34.999,1.217
				c-11.388,0.396-22.69-2.102-32.849-7.262l-34.424-17.482C314.847,151.755,315.101,151.057,315.603,151.172z"/>
			<path style="opacity:0.14;fill:#D3D3D3;" d="M312.395,173.029l102.058,23.48c0.499,0.115,0.429,0.846-0.083,0.863l-34.999,1.217
				c-11.388,0.396-22.69-2.103-32.849-7.262l-34.424-17.482C311.639,173.611,311.892,172.913,312.395,173.029z"/>
			<path style="opacity:0.14;fill:#D3D3D3;" d="M308.188,194.83l102.059,23.48c0.499,0.115,0.428,0.846-0.083,0.863l-34.999,1.217
				c-11.388,0.396-22.69-2.103-32.849-7.262l-34.424-17.482C307.432,195.413,307.685,194.715,308.188,194.83z"/>
		</g>
	</g>
</g>
</svg>
