<svg xmlns="http://www.w3.org/2000/svg" viewBox="0 0 327.48 111.2"><defs><style>.cls-1{isolation:isolate;}.cls-2{fill:#eaeaea;}.cls-3,.cls-4,.cls-5,.cls-6{fill:#fff;}.cls-4,.cls-5{mix-blend-mode:screen;}.cls-4{opacity:0.39;}.cls-5{opacity:0.48;}.cls-6{font-size:42.95px;font-family:ComicSansMS-Bold, Comic Sans MS;font-weight:700;}</style></defs><g class="cls-1"><g id="OBJECTS"><ellipse class="cls-2" cx="54.47" cy="106.65" rx="50.19" ry="4.54"/><polygon class="cls-3" points="69.11 39.05 59.34 39.05 59.34 29.28 49.41 29.28 49.41 39.05 39.64 39.05 39.64 48.97 49.41 48.97 49.41 58.74 59.34 58.74 59.34 48.97 69.11 48.97 69.11 39.05"/><path class="cls-4" d="M112,238.58h4.8v-9.92H107v-9.77H97.08v4.24C100.17,229.65,105.7,234.86,112,238.58Z" transform="translate(-47.67 -189.61)"/><path class="cls-3" d="M115.16,255.33c-2.22,1.08-13,0-13.12,1.28-.34,3.73,7,5,9,5.4,8.26,1.68,14.85-3.23,24.5-12.31,10-9.37,17.61-23.37,16.73-36C151,195.89,135,186.84,120.78,191.77a40.33,40.33,0,0,0-17.62,11.64,2.71,2.71,0,0,1-4.14,0A40.21,40.21,0,0,0,81.4,191.77c-14.23-4.93-30.1,4.6-33.14,21.43-3.67,20.27,10,43.59,33.46,58.1,5.87,3.63,23.81,10.19,32.85,7.53,5.9-1.73,20.86-13.55,19.22-15.17-4.1-4.09-13.88,6.14-21.21,5.64-6.87-.46-11.4-1.71-13.74-5.15-3.81-5.58-3-12.91-4.88-12.3-4.43-1.48-1.43,9.9-5.19,7.63C72.9,249.9,63.66,234.27,66.11,220.7c2-11.14,12.52-17.45,22-14.19a27.11,27.11,0,0,1,11,7,2.73,2.73,0,0,0,4,0,27.16,27.16,0,0,1,11-7c9.42-3.26,19.93,3.05,21.94,14.19,1.57,8.67-1.65,18.18-8.31,26.42-2.87-1.09-9.24-4.85-11.09-2-1.13,1.74,2.7,3,3.18,4.33C120.55,251.48,116.85,254.5,115.16,255.33Z" transform="translate(-47.67 -189.61)"/><path class="cls-5" d="M114.11,273.92c6.29-1,13.07-7.75,19.78-10.1a.34.34,0,0,0-.1-.16c-4.1-4.09-13.88,6.14-21.21,5.64-6.87-.46-11.4-1.71-13.74-5.15-3.81-5.58-3-12.91-4.88-12.3-4.43-1.48-1.43,9.9-5.19,7.63C72.9,249.9,63.66,234.27,66.11,220.7c2-11.14,12.52-17.45,22-14.19a28.75,28.75,0,0,1,6.21,3c-7-5.16-13.87-9.5-22.75-7.24-5.75,1.45-11.36,7.57-12.63,13.4C52,247.41,90.73,277.64,114.11,273.92Z" transform="translate(-47.67 -189.61)"/><path class="cls-5" d="M152.26,213.7C151,195.89,135,186.84,120.78,191.77a42.93,42.93,0,0,0-11.45,5.95c0,.31,12.06-4.32,19.23-2.43,14.15,3.72,17.38,16.9,15.4,29.48-1.74,11.09-14.1,29.3-28.51,34.44-2.9,1-9.71-.33-12.35-3.1-.64.1-1,.26-1.06.5-.34,3.73,7,5,9,5.4,8.26,1.68,14.85-3.23,24.5-12.31C145.5,240.33,153.14,226.33,152.26,213.7Z" transform="translate(-47.67 -189.61)"/><text class="cls-6" transform="translate(110.66 37.77) scale(1.03 1)">Doctors</text><text class="cls-6" transform="translate(110.33 82.39) scale(1.03 1)">ServiceBD</text></g></g></svg>